<svg id="Layer_1" data-name="Layer 1" xmlns="http://www.w3.org/2000/svg" xmlns:xlink="http://www.w3.org/1999/xlink" viewBox="0 0 1116.91 395.36"><defs><style>.cls-1,.cls-5{fill:#f5f5f7;}.cls-2{fill:#10a862;}.cls-3{fill:url(#linear-gradient);}.cls-4{fill:url(#linear-gradient-2);}.cls-5{font-size:84.55px;font-family:Inter,ui-sans-serif,system-ui,sans-serif;font-weight:800;font-style:oblique;letter-spacing:0.04em;}</style><linearGradient id="linear-gradient" x1="974.96" y1="382.28" x2="1246.73" y2="382.28" gradientUnits="userSpaceOnUse"><stop offset="0" stop-color="#c89544"/><stop offset="0.28" stop-color="#e7c468"/><stop offset="0.52" stop-color="#e1b85c"/><stop offset="0.8" stop-color="#af7a34"/><stop offset="1" stop-color="#fbea98"/></linearGradient><linearGradient id="linear-gradient-2" x1="950.41" y1="533.86" x2="1232.61" y2="533.86" xlink:href="#linear-gradient"/></defs><path class="cls-1" d="M519.24,423.71,516,450l151.29-.75-8.06,64.8-151.28.75-3.79,30.33,151.31-.73-9.35,75.12H401.54l8.65-73.92,3.54-30.34,7.57-64.8,3.05-26.3,9.57-81.86c0,.61,36.14,1.07,95.28,1.4,40.83.24,92.66.42,151.12.54L670.53,423Z" transform="translate(-401.54 -342.32)"/><path class="cls-2" d="M964.1,389.62l-4,31.95L867,422l-175.39.85,3.7-29.77a55.52,55.52,0,0,1,55.18-48.68c40.39.06,82.82.11,126.14.14l47.72,0A40.1,40.1,0,0,1,964.1,389.62Z" transform="translate(-401.54 -342.32)"/><polygon class="cls-1" points="556.03 102.82 547.94 167.62 544.13 197.97 534.24 277.22 439.84 277.22 449.65 198.44 453.41 168.08 461.49 103.29 556.03 102.82"/><path class="cls-3" d="M1246.33,401.59l-2.17,17.26-94.56.45-79.73.4-94.91.47,9.39-75.6c33.79,0,65.69-.06,94.87-.08l79.71-.06,36.87,0A50.88,50.88,0,0,1,1246.33,401.59Z" transform="translate(-401.54 -342.32)"/><path class="cls-4" d="M1175.36,448.18a57,57,0,0,1,56.8,64l-.06.49L1228.32,543l-1.06,8.49a77.62,77.62,0,0,1-77,68H950.41l9.37-75.22,175.39-.85,3.79-30.35-125.44.6a43.9,43.9,0,0,1-43.79-49.34l1.89-15.21,175.39-.85Z" transform="translate(-401.54 -342.32)"/><polygon class="cls-1" points="381.74 103.67 373.68 168.47 369.92 198.82 360.17 277.22 265.3 277.22 274.99 199.29 278.77 168.93 286.83 104.14 381.74 103.67"/><path class="cls-1" d="M1255.52,447.53h255.64l-15.07,113.18a67.82,67.82,0,0,1-67.21,58.83h-193.6Z" transform="translate(-401.54 -342.32)"/><path class="cls-1" d="M1518.06,395.79l-3.38,25.43H1258.61l9.05-76.9L1474.8,346A44,44,0,0,1,1518.06,395.79Z" transform="translate(-401.54 -342.32)"/><path class="cls-1" d="M765.78,446l117.39-.45-12.33,67.35H745.56Z" transform="translate(-401.54 -342.32)"/><text class="cls-5" transform="translate(42.78 376.92)">East Africa Sports Desk</text></svg>
